<?xml version="1.0" standalone="no"?>
<!DOCTYPE svg PUBLIC "-//W3C//DTD SVG 20010904//EN"
 "http://www.w3.org/TR/2001/REC-SVG-20010904/DTD/svg10.dtd">
<svg version="1.0" xmlns="http://www.w3.org/2000/svg"
 width="401.000000pt" height="401.000000pt" viewBox="0 0 401.000000 401.000000"
 preserveAspectRatio="xMidYMid meet">
<metadata>
Created by potrace 1.11, written by Peter Selinger 2001-2013
</metadata>
<g transform="translate(0.000000,401.000000) scale(0.100000,-0.100000)"
fill="#000000" stroke="none">
<path d="M1730 3989 c-157 -23 -229 -41 -359 -90 -353 -133 -651 -387 -837
-716 -30 -52 -54 -100 -54 -107 0 -7 -4 -16 -9 -21 -14 -15 -77 -202 -95 -285
-35 -155 -44 -256 -44 -450 1 -327 41 -532 154 -782 211 -467 684 -829 1194
-912 19 -3 58 -9 85 -13 95 -15 463 -8 565 11 327 58 585 167 805 340 88 69
218 208 283 303 34 50 62 94 62 98 0 4 10 20 21 37 27 37 39 28 -161 114 -85
37 -211 93 -280 124 l-125 57 -38 -58 c-129 -198 -376 -346 -658 -395 -124
-22 -357 -14 -474 16 -321 82 -548 268 -657 537 -17 43 -35 96 -40 118 -5 22
-13 57 -17 77 -4 20 -5 41 -2 46 4 5 515 9 1292 9 707 0 1290 3 1296 6 11 7
10 413 -1 507 -15 117 -50 279 -83 379 -30 92 -99 247 -136 306 -43 70 -126
186 -156 219 -72 78 -87 93 -161 157 -226 195 -467 309 -761 360 -172 30 -438
33 -609 8z m465 -625 c314 -53 554 -238 672 -518 32 -75 50 -136 59 -201 3
-16 7 -39 9 -51 l5 -21 -949 0 -948 0 3 25 c1 14 10 57 20 96 116 475 594 759
1129 670z"/>
<path d="M240 252 c-6 -2 -10 -53 -10 -126 l0 -123 1763 1 1762 1 3 125 3 125
-1756 0 c-965 0 -1760 -1 -1765 -3z"/>
</g>
</svg>
